<svg width="122" height="111" viewBox="0 0 122 111" fill="none" xmlns="http://www.w3.org/2000/svg">
<path d="M31.7963 38.0755C27.5672 34.6332 21.3189 28.7476 18.9252 22.4022C17.5308 18.7058 17.768 10.1077 23.6371 5.34435C32.8542 -2.13625 40.9856 6.95343 40.9856 6.95343C40.9856 6.95343 41.7978 0.1996 51.3247 0.510391C60.8515 0.821182 63.9155 8.64897 65.8963 15.5895C66.4469 17.5191 66.6818 19.6932 66.7248 21.8679C67.4462 19.5785 68.5036 17.397 70.0473 15.725C74.5628 10.8339 80.3054 3.80286 88.497 7.46025C93.4846 9.68714 95.2554 15.2434 95.2554 15.2434C95.2554 15.2434 104.774 10.0775 109.831 22.2384C111.984 27.4161 105.069 34.6259 98.3252 40.1178C103.582 37.6786 119.388 39.7618 120.898 49.1992C123.163 63.3524 114.898 65.9543 114.898 65.9543C114.898 65.9543 122.641 75.3938 116.602 85.3673C110.128 96.0586 102.465 97.1033 94.0116 93.1766C88.947 90.824 84.8577 86.3596 82.0415 82.4977C83.0254 84.6018 83.9285 87.066 84.4325 89.7347C85.6958 96.4239 84.6754 106.172 75.09 107.945C65.1202 109.79 58.4049 101.925 58.4049 101.925C58.4049 101.925 57.757 105.555 52.4762 108.512C47.1955 111.469 46.7091 110.149 40.4825 109.946C35.8335 109.794 31.5506 97.1369 34.4 89.4064C36.5923 83.4584 41.6043 75.5592 41.6043 75.5592C41.6043 75.5592 38.4986 78.3129 31.5057 82.5913C25.0552 86.5378 12.5136 91.561 4.68744 76.7019C-0.755146 66.3684 5.24833 59.5086 5.24833 59.5086C5.24833 59.5086 0.156229 56.3755 0.518452 45.2721C0.708836 39.4362 8.86612 32.4067 18.5683 33.3434C24.0755 33.8751 28.7013 36.1191 31.7963 38.0755Z" fill="#FFA9BF"/>
<path d="M35.9722 41.2131C35.9722 41.2131 22.6875 32.3756 18.9252 22.4022C17.5308 18.7058 17.768 10.1077 23.6371 5.34435C32.8542 -2.13625 40.9856 6.95343 40.9856 6.95343C40.9856 6.95343 41.7978 0.199601 51.3247 0.510391C60.8515 0.821181 63.9155 8.64897 65.8963 15.5895C68.0921 23.2837 65.2674 34.8669 65.2674 34.8669C65.2674 34.8669 64.3803 21.8632 70.0473 15.725C74.5628 10.8339 80.3054 3.80286 88.497 7.46025C93.4846 9.68714 95.2554 15.2434 95.2554 15.2434C95.2554 15.2434 104.774 10.0775 109.831 22.2384C113.784 31.7442 87.1712 48.099 87.1712 48.099C87.1712 48.099 92.765 42.6977 98.3252 40.1178C103.582 37.6786 119.388 39.7618 120.898 49.1992C123.163 63.3524 114.898 65.9543 114.898 65.9543C114.898 65.9543 122.641 75.3938 116.602 85.3673C110.128 96.0586 102.465 97.1033 94.0116 93.1766C83.9264 88.4919 77.7089 75.4331 77.7089 75.4331C77.7089 75.4331 82.9044 81.6438 84.4325 89.7347C85.6958 96.4239 84.6754 106.172 75.09 107.945C65.1202 109.79 58.4049 101.925 58.4049 101.925C58.4049 101.925 57.757 105.554 52.4762 108.512C47.1955 111.469 46.7091 110.149 40.4825 109.946C35.8335 109.794 31.5506 97.1369 34.4 89.4064C36.5923 83.4584 41.6043 75.5592 41.6043 75.5592C41.6043 75.5592 38.4986 78.3129 31.5057 82.5913C25.0552 86.5378 12.5136 91.561 4.68744 76.7019C-0.755146 66.3684 5.24833 59.5086 5.24833 59.5086C5.24833 59.5086 0.156229 56.3755 0.518452 45.2721C0.708836 39.4362 8.86612 32.4067 18.5683 33.3434C28.788 34.3301 35.9722 41.2131 35.9722 41.2131Z" stroke="#FFA9BF"/>
</svg>
