<svg xmlns="http://www.w3.org/2000/svg" width="256" height="256" viewBox="0 0 14 26" shape-rendering="crispEdges" role="img" aria-label="Cute slanted pixel pencil icon (pink/brown, tight cropped)">

  <!-- Palette -->
  <!-- outline: #6B3F2A -->
  <!-- body:    #F7C6D6 -->
  <!-- shade:   #E79BB6 -->
  <!-- ferrule: #B87455 -->
  <!-- eraser:  #F49AB6 -->
  <!-- lead:    #2E1A12 -->

  <!-- ERASER (top-left) -->
  <rect x="2" y="0" width="4" height="4" fill="#6B3F2A"></rect>
  <rect x="3" y="0" width="3" height="4" fill="#F49AB6"></rect>

  <!-- FERRULE -->
  <rect x="4" y="4" width="4" height="3" fill="#6B3F2A"></rect>
  <rect x="5" y="4" width="3" height="3" fill="#B87455"></rect>

  <!-- BODY OUTLINE (diagonal) -->
  <rect x="5" y="7" width="4" height="4" fill="#6B3F2A"></rect>
  <rect x="6" y="11" width="4" height="4" fill="#6B3F2A"></rect>
  <rect x="7" y="15" width="4" height="4" fill="#6B3F2A"></rect>
  <rect x="8" y="19" width="4" height="4" fill="#6B3F2A"></rect>

  <!-- BODY FILL -->
  <rect x="6" y="7" width="3" height="4" fill="#F7C6D6"></rect>
  <rect x="7" y="11" width="3" height="4" fill="#F7C6D6"></rect>
  <rect x="8" y="15" width="3" height="4" fill="#F7C6D6"></rect>
  <rect x="9" y="19" width="3" height="4" fill="#E79BB6"></rect>

  <!-- TIP OUTLINE -->
  <rect x="10" y="23" width="3" height="3" fill="#6B3F2A"></rect>
  <rect x="11" y="22" width="3" height="3" fill="#6B3F2A"></rect>

  <!-- TIP FILL -->
  <rect x="11" y="23" width="2" height="2" fill="#2E1A12"></rect>

</svg>
